<svg xmlns="http://www.w3.org/2000/svg" viewBox="0 0 64 64" role="img" aria-label="Matsuri">
  <rect x="7" y="19" width="45" height="36" rx="9" fill="#fffaf2" stroke="#20304a" stroke-width="4"/>
  <path d="M6 21 12 9h36l7 12" fill="#f6c85f" stroke="#20304a" stroke-width="4" stroke-linejoin="round"/>
  <path d="M11 21c0 5 8 6 10 0 2 6 10 5 11 0 2 6 10 5 11 0 2 6 9 5 10 0" fill="#ef806d" stroke="#20304a" stroke-width="4" stroke-linecap="round"/>
  <path d="M17 35h27M17 45h27M21 35v10M40 35v10" fill="none" stroke="#5c8657" stroke-width="4" stroke-linecap="round"/>
  <path d="m53 7 1.7 4.3L59 13l-4.3 1.7L53 19l-1.7-4.3L47 13l4.3-1.7Z" fill="#f6c85f" stroke="#20304a" stroke-width="2" stroke-linejoin="round"/>
</svg>
