<svg xmlns="http://www.w3.org/2000/svg" viewBox="0 0 64 64" role="img" aria-label="Matsuri torii gate">
  <g fill="#d95c64">
    <path fill-rule="evenodd" d="M32 3a29 29 0 1 1 0 58 29 29 0 0 1 0-58Zm0 4.6a24.4 24.4 0 1 0 0 48.8 24.4 24.4 0 0 0 0-48.8Z"/>
    <path d="M12.3 16.4c12.7 4.1 26.7 4.1 39.4 0l1.6 5.4a69.8 69.8 0 0 1-42.6 0l1.6-5.4Z"/>
    <path d="M15 29.6a57.8 57.8 0 0 1 34 0l-1.7 5.3a52.3 52.3 0 0 0-30.6 0L15 29.6Z"/>
    <path d="M20.4 21.2h7c-.1 15.2-2.2 25.9-7.2 35.8l-6-3c4.4-8.9 6.2-18.1 6.2-32.8ZM36.6 21.2h7c0 14.7 1.8 23.9 6.2 32.8l-6 3c-5-9.9-7.1-20.6-7.2-35.8Z"/>
  </g>
</svg>
